<mxfile host="app.diagrams.net" modified="2023-10-03T11:44:41.200Z" agent="Mozilla/5.0 (Windows NT 10.0; Win64; x64) AppleWebKit/537.36 (KHTML, like Gecko) Chrome/117.0.0.0 Safari/537.36" etag="_BFMvUC9AxU2O4Wmfsih" version="22.0.1" type="device">
  <diagram name="Страница — 1" id="VveS8F5HfJ1dZ5Nn02FX">
    <mxGraphModel dx="1120" dy="446" grid="1" gridSize="10" guides="1" tooltips="1" connect="1" arrows="1" fold="1" page="1" pageScale="1" pageWidth="827" pageHeight="1169" math="0" shadow="0">
      <root>
        <mxCell id="0" />
        <mxCell id="1" parent="0" />
        <mxCell id="wp4UC8pC6wF170UOVEhi-1" value="Snake" style="swimlane;fontStyle=1;align=center;verticalAlign=top;childLayout=stackLayout;horizontal=1;startSize=26;horizontalStack=0;resizeParent=1;resizeParentMax=0;resizeLast=0;collapsible=1;marginBottom=0;whiteSpace=wrap;html=1;" parent="1" vertex="1">
          <mxGeometry x="40" y="40" width="210" height="250" as="geometry" />
        </mxCell>
        <mxCell id="wp4UC8pC6wF170UOVEhi-2" value="+&amp;nbsp;head_coord&lt;span style=&quot;background-color: initial;&quot;&gt;: list&lt;/span&gt;&lt;br&gt;+ long: int&lt;br&gt;+ last_step: list" style="text;strokeColor=none;fillColor=none;align=left;verticalAlign=top;spacingLeft=4;spacingRight=4;overflow=hidden;rotatable=0;points=[[0,0.5],[1,0.5]];portConstraint=eastwest;whiteSpace=wrap;html=1;" parent="wp4UC8pC6wF170UOVEhi-1" vertex="1">
          <mxGeometry y="26" width="210" height="54" as="geometry" />
        </mxCell>
        <mxCell id="wp4UC8pC6wF170UOVEhi-3" value="" style="line;strokeWidth=1;fillColor=none;align=left;verticalAlign=middle;spacingTop=-1;spacingLeft=3;spacingRight=3;rotatable=0;labelPosition=right;points=[];portConstraint=eastwest;strokeColor=inherit;" parent="wp4UC8pC6wF170UOVEhi-1" vertex="1">
          <mxGeometry y="80" width="210" height="8" as="geometry" />
        </mxCell>
        <mxCell id="wp4UC8pC6wF170UOVEhi-4" value="+&amp;nbsp;get_head_coord()&lt;br&gt;+&amp;nbsp;get_last_step()&lt;br&gt;+&amp;nbsp;new_snake(field_respawn: list&lt;span style=&quot;background-color: initial;&quot;&gt;)&lt;/span&gt;&lt;br&gt;+ eat_berry(berry_coord: list&lt;span style=&quot;background-color: initial;&quot;&gt;)&lt;/span&gt;&lt;br&gt;+ turn_left()&lt;br&gt;+ turn_right()&lt;br&gt;+ turn_up()&lt;br&gt;+ turn_down()&lt;br&gt;+&amp;nbsp;snake_search_berry(snake_coord: list, berry_coord: list)" style="text;strokeColor=none;fillColor=none;align=left;verticalAlign=top;spacingLeft=4;spacingRight=4;overflow=hidden;rotatable=0;points=[[0,0.5],[1,0.5]];portConstraint=eastwest;whiteSpace=wrap;html=1;" parent="wp4UC8pC6wF170UOVEhi-1" vertex="1">
          <mxGeometry y="88" width="210" height="162" as="geometry" />
        </mxCell>
        <mxCell id="wp4UC8pC6wF170UOVEhi-5" value="Berry" style="swimlane;fontStyle=1;align=center;verticalAlign=top;childLayout=stackLayout;horizontal=1;startSize=26;horizontalStack=0;resizeParent=1;resizeParentMax=0;resizeLast=0;collapsible=1;marginBottom=0;whiteSpace=wrap;html=1;" parent="1" vertex="1">
          <mxGeometry x="300" y="40" width="260" height="130" as="geometry" />
        </mxCell>
        <mxCell id="wp4UC8pC6wF170UOVEhi-6" value="+&amp;nbsp;berry_coord: list&lt;br&gt;+ is_exist: bool" style="text;strokeColor=none;fillColor=none;align=left;verticalAlign=top;spacingLeft=4;spacingRight=4;overflow=hidden;rotatable=0;points=[[0,0.5],[1,0.5]];portConstraint=eastwest;whiteSpace=wrap;html=1;" parent="wp4UC8pC6wF170UOVEhi-5" vertex="1">
          <mxGeometry y="26" width="260" height="44" as="geometry" />
        </mxCell>
        <mxCell id="wp4UC8pC6wF170UOVEhi-7" value="" style="line;strokeWidth=1;fillColor=none;align=left;verticalAlign=middle;spacingTop=-1;spacingLeft=3;spacingRight=3;rotatable=0;labelPosition=right;points=[];portConstraint=eastwest;strokeColor=inherit;" parent="wp4UC8pC6wF170UOVEhi-5" vertex="1">
          <mxGeometry y="70" width="260" height="8" as="geometry" />
        </mxCell>
        <mxCell id="wp4UC8pC6wF170UOVEhi-8" value="+ new_berry(field_respawn: list,&amp;nbsp;last_step: list&lt;span style=&quot;background-color: initial;&quot;&gt;)&lt;/span&gt;&lt;br&gt;+&amp;nbsp;berry_is_eaten()" style="text;strokeColor=none;fillColor=none;align=left;verticalAlign=top;spacingLeft=4;spacingRight=4;overflow=hidden;rotatable=0;points=[[0,0.5],[1,0.5]];portConstraint=eastwest;whiteSpace=wrap;html=1;" parent="wp4UC8pC6wF170UOVEhi-5" vertex="1">
          <mxGeometry y="78" width="260" height="52" as="geometry" />
        </mxCell>
        <mxCell id="wp4UC8pC6wF170UOVEhi-9" value="Field" style="swimlane;fontStyle=1;align=center;verticalAlign=top;childLayout=stackLayout;horizontal=1;startSize=26;horizontalStack=0;resizeParent=1;resizeParentMax=0;resizeLast=0;collapsible=1;marginBottom=0;whiteSpace=wrap;html=1;" parent="1" vertex="1">
          <mxGeometry x="620" y="40" width="220" height="230" as="geometry" />
        </mxCell>
        <mxCell id="wp4UC8pC6wF170UOVEhi-10" value="+ size: int&lt;br&gt;+ score: int" style="text;strokeColor=none;fillColor=none;align=left;verticalAlign=top;spacingLeft=4;spacingRight=4;overflow=hidden;rotatable=0;points=[[0,0.5],[1,0.5]];portConstraint=eastwest;whiteSpace=wrap;html=1;" parent="wp4UC8pC6wF170UOVEhi-9" vertex="1">
          <mxGeometry y="26" width="220" height="44" as="geometry" />
        </mxCell>
        <mxCell id="wp4UC8pC6wF170UOVEhi-11" value="" style="line;strokeWidth=1;fillColor=none;align=left;verticalAlign=middle;spacingTop=-1;spacingLeft=3;spacingRight=3;rotatable=0;labelPosition=right;points=[];portConstraint=eastwest;strokeColor=inherit;" parent="wp4UC8pC6wF170UOVEhi-9" vertex="1">
          <mxGeometry y="70" width="220" height="8" as="geometry" />
        </mxCell>
        <mxCell id="wp4UC8pC6wF170UOVEhi-12" value="+ set_size()&lt;br&gt;+&amp;nbsp;view_game(coord_matrix: list, last_step: list, field_border: list&lt;span style=&quot;background-color: initial;&quot;&gt;)&lt;/span&gt;&lt;br&gt;+&amp;nbsp;clear_field()&lt;br&gt;+make_random_coord(field_size: list)&lt;br&gt;+&amp;nbsp;make_coord_list(field_size: list)&lt;br&gt;+make_field_border(field_size: list)&lt;br&gt;+&amp;nbsp;make_field_respawn(field_size: list)&lt;br&gt;+ add_score()" style="text;strokeColor=none;fillColor=none;align=left;verticalAlign=top;spacingLeft=4;spacingRight=4;overflow=hidden;rotatable=0;points=[[0,0.5],[1,0.5]];portConstraint=eastwest;whiteSpace=wrap;html=1;" parent="wp4UC8pC6wF170UOVEhi-9" vertex="1">
          <mxGeometry y="78" width="220" height="152" as="geometry" />
        </mxCell>
        <UserObject label="1" placeholders="1" name="Variable" id="wp4UC8pC6wF170UOVEhi-21">
          <mxCell style="text;html=1;strokeColor=none;fillColor=none;align=center;verticalAlign=middle;whiteSpace=wrap;overflow=hidden;" parent="1" vertex="1">
            <mxGeometry x="140" y="300" width="40" height="20" as="geometry" />
          </mxCell>
        </UserObject>
        <mxCell id="HJItUaXOLjU9ZTcAsa_J-1" value="" style="endArrow=open;endFill=1;endSize=12;html=1;rounded=0;exitX=0.605;exitY=1.017;exitDx=0;exitDy=0;exitPerimeter=0;entryX=0.476;entryY=1.023;entryDx=0;entryDy=0;entryPerimeter=0;" edge="1" parent="1" source="wp4UC8pC6wF170UOVEhi-12" target="wp4UC8pC6wF170UOVEhi-4">
          <mxGeometry width="160" relative="1" as="geometry">
            <mxPoint x="754.0799999999999" y="322.408" as="sourcePoint" />
            <mxPoint x="140" y="290" as="targetPoint" />
            <Array as="points">
              <mxPoint x="754" y="340" />
              <mxPoint x="710" y="340" />
              <mxPoint x="140" y="340" />
            </Array>
          </mxGeometry>
        </mxCell>
        <mxCell id="HJItUaXOLjU9ZTcAsa_J-2" value="" style="endArrow=open;endFill=1;endSize=12;html=1;rounded=0;entryX=1;entryY=0.5;entryDx=0;entryDy=0;" edge="1" parent="1" target="wp4UC8pC6wF170UOVEhi-8">
          <mxGeometry width="160" relative="1" as="geometry">
            <mxPoint x="620" y="144" as="sourcePoint" />
            <mxPoint x="490" y="130" as="targetPoint" />
          </mxGeometry>
        </mxCell>
        <UserObject label="1" placeholders="1" name="Variable" id="HJItUaXOLjU9ZTcAsa_J-4">
          <mxCell style="text;html=1;strokeColor=none;fillColor=none;align=center;verticalAlign=middle;whiteSpace=wrap;overflow=hidden;" vertex="1" parent="1">
            <mxGeometry x="550" y="120" width="40" height="20" as="geometry" />
          </mxCell>
        </UserObject>
        <mxCell id="HJItUaXOLjU9ZTcAsa_J-5" value="1" style="text;html=1;strokeColor=none;fillColor=none;align=center;verticalAlign=middle;whiteSpace=wrap;rounded=0;" vertex="1" parent="1">
          <mxGeometry x="460" y="170" width="60" height="30" as="geometry" />
        </mxCell>
        <mxCell id="HJItUaXOLjU9ZTcAsa_J-3" value="" style="endArrow=open;endFill=1;endSize=12;html=1;rounded=0;exitX=1.005;exitY=0.636;exitDx=0;exitDy=0;exitPerimeter=0;" edge="1" parent="1" source="wp4UC8pC6wF170UOVEhi-4">
          <mxGeometry width="160" relative="1" as="geometry">
            <mxPoint x="270" y="230" as="sourcePoint" />
            <mxPoint x="470" y="180" as="targetPoint" />
            <Array as="points">
              <mxPoint x="470" y="230" />
              <mxPoint x="470" y="190" />
            </Array>
          </mxGeometry>
        </mxCell>
      </root>
    </mxGraphModel>
  </diagram>
</mxfile>
